# xmcd
#
# Track frame offsets: 
#        150
#        20990
#        36753
#        55863
#        78150
#        95560
#        113230
#        132130
#        153524
#        172127
#        187500
#        204650
#        221820
#        242470
#        260928
#        279591
#
# Disc length: 3953 seconds
#
# Revision: 0
# Processed by: cddbd v1.5.2PL0 Copyright (c) Steve Scherf et al.
# Submitted via: ExactAudioCopy v1.0b3
#
DISCID=e60f6f10
DTITLE=群星 - 试机宝典32号
DYEAR=2013
DGENRE=STEREO
TTITLE0=秋水伊人
TTITLE1=星夜的离别
TTITLE2=最爱是谁
TTITLE3=心雨
TTITLE4=月光小夜曲
TTITLE5=红豆
TTITLE6=月儿弯弯照九州
TTITLE7=我曾经爱过这样的人
TTITLE8=月雨绵绵
TTITLE9=南海姑娘
TTITLE10=我可以抱你吗
TTITLE11=味道
TTITLE12=明天你是否依然爱我
TTITLE13=因为爱情
TTITLE14=婚誓
TTITLE15=茉莉花
EXTD=
EXTT0=
EXTT1=
EXTT2=
EXTT3=
EXTT4=
EXTT5=
EXTT6=
EXTT7=
EXTT8=
EXTT9=
EXTT10=
EXTT11=
EXTT12=
EXTT13=
EXTT14=
EXTT15=
PLAYORDER=
